<mxfile host="app.diagrams.net" modified="2024-04-16T13:10:33.918Z" agent="Mozilla/5.0 (Windows NT 10.0; Win64; x64) AppleWebKit/537.36 (KHTML, like Gecko) Chrome/123.0.0.0 Safari/537.36" etag="ceyQSkwUwMJaz4iX5zLa" version="24.2.5" type="github">
  <diagram name="注解" id="Z38ixfocyCblZkwESWtH">
    <mxGraphModel dx="823" dy="563" grid="1" gridSize="10" guides="1" tooltips="1" connect="1" arrows="1" fold="1" page="1" pageScale="1" pageWidth="1169" pageHeight="827" math="0" shadow="0">
      <root>
        <mxCell id="0" />
        <mxCell id="1" parent="0" />
        <mxCell id="2s8KzwiCEhs0ON-nmqjX-1" value="" style="rounded=0;whiteSpace=wrap;html=1;" parent="1" vertex="1">
          <mxGeometry x="460" y="260" width="340" height="180" as="geometry" />
        </mxCell>
        <mxCell id="l0sPDSlst7Odc_R3dFh9-3" value="" style="edgeStyle=orthogonalEdgeStyle;rounded=0;orthogonalLoop=1;jettySize=auto;html=1;" edge="1" parent="1" source="2s8KzwiCEhs0ON-nmqjX-2" target="2s8KzwiCEhs0ON-nmqjX-29">
          <mxGeometry relative="1" as="geometry" />
        </mxCell>
        <mxCell id="2s8KzwiCEhs0ON-nmqjX-2" value="&lt;font color=&quot;#ff6666&quot; face=&quot;Times New Roman&quot; style=&quot;font-size: 30px;&quot;&gt;IOC容器&lt;/font&gt;" style="text;html=1;align=center;verticalAlign=middle;whiteSpace=wrap;rounded=0;" parent="1" vertex="1">
          <mxGeometry x="560" y="280" width="140" height="30" as="geometry" />
        </mxCell>
        <mxCell id="2s8KzwiCEhs0ON-nmqjX-28" style="edgeStyle=orthogonalEdgeStyle;rounded=0;orthogonalLoop=1;jettySize=auto;html=1;dashed=1;" parent="1" source="2s8KzwiCEhs0ON-nmqjX-3" target="2s8KzwiCEhs0ON-nmqjX-4" edge="1">
          <mxGeometry relative="1" as="geometry" />
        </mxCell>
        <mxCell id="2s8KzwiCEhs0ON-nmqjX-3" value="&lt;font style=&quot;font-size: 24px;&quot;&gt;BeanA&lt;/font&gt;" style="rounded=0;whiteSpace=wrap;html=1;" parent="1" vertex="1">
          <mxGeometry x="470" y="360" width="120" height="60" as="geometry" />
        </mxCell>
        <mxCell id="2s8KzwiCEhs0ON-nmqjX-4" value="&lt;font style=&quot;font-size: 24px;&quot;&gt;BeanB&lt;/font&gt;" style="rounded=0;whiteSpace=wrap;html=1;" parent="1" vertex="1">
          <mxGeometry x="660" y="360" width="130" height="60" as="geometry" />
        </mxCell>
        <mxCell id="2s8KzwiCEhs0ON-nmqjX-13" style="rounded=0;orthogonalLoop=1;jettySize=auto;html=1;" parent="1" source="2s8KzwiCEhs0ON-nmqjX-6" target="2s8KzwiCEhs0ON-nmqjX-3" edge="1">
          <mxGeometry relative="1" as="geometry" />
        </mxCell>
        <mxCell id="2s8KzwiCEhs0ON-nmqjX-6" value="ClassA" style="swimlane;fontStyle=1;align=center;verticalAlign=top;childLayout=stackLayout;horizontal=1;startSize=26;horizontalStack=0;resizeParent=1;resizeParentMax=0;resizeLast=0;collapsible=1;marginBottom=0;whiteSpace=wrap;html=1;" parent="1" vertex="1">
          <mxGeometry x="260" y="190" width="160" height="52" as="geometry" />
        </mxCell>
        <mxCell id="2s8KzwiCEhs0ON-nmqjX-7" value="+ classb: ClassB" style="text;strokeColor=none;fillColor=none;align=left;verticalAlign=top;spacingLeft=4;spacingRight=4;overflow=hidden;rotatable=0;points=[[0,0.5],[1,0.5]];portConstraint=eastwest;whiteSpace=wrap;html=1;" parent="2s8KzwiCEhs0ON-nmqjX-6" vertex="1">
          <mxGeometry y="26" width="160" height="26" as="geometry" />
        </mxCell>
        <mxCell id="2s8KzwiCEhs0ON-nmqjX-14" style="rounded=0;orthogonalLoop=1;jettySize=auto;html=1;" parent="1" source="2s8KzwiCEhs0ON-nmqjX-10" target="2s8KzwiCEhs0ON-nmqjX-4" edge="1">
          <mxGeometry relative="1" as="geometry" />
        </mxCell>
        <mxCell id="2s8KzwiCEhs0ON-nmqjX-10" value="ClassB" style="swimlane;fontStyle=1;align=center;verticalAlign=top;childLayout=stackLayout;horizontal=1;startSize=26;horizontalStack=0;resizeParent=1;resizeParentMax=0;resizeLast=0;collapsible=1;marginBottom=0;whiteSpace=wrap;html=1;" parent="1" vertex="1">
          <mxGeometry x="830" y="190" width="160" height="52" as="geometry" />
        </mxCell>
        <mxCell id="2s8KzwiCEhs0ON-nmqjX-11" value="+ filed1: String" style="text;strokeColor=none;fillColor=none;align=left;verticalAlign=top;spacingLeft=4;spacingRight=4;overflow=hidden;rotatable=0;points=[[0,0.5],[1,0.5]];portConstraint=eastwest;whiteSpace=wrap;html=1;" parent="2s8KzwiCEhs0ON-nmqjX-10" vertex="1">
          <mxGeometry y="26" width="160" height="26" as="geometry" />
        </mxCell>
        <mxCell id="2s8KzwiCEhs0ON-nmqjX-16" value="&lt;font style=&quot;font-size: 14px;&quot;&gt;被管理，如何告知IOC容器&lt;/font&gt;&lt;div&gt;&lt;font size=&quot;3&quot;&gt;（配置文件）&lt;/font&gt;&lt;/div&gt;" style="text;html=1;align=center;verticalAlign=middle;whiteSpace=wrap;rounded=0;" parent="1" vertex="1">
          <mxGeometry x="230" y="310" width="190" height="30" as="geometry" />
        </mxCell>
        <mxCell id="2s8KzwiCEhs0ON-nmqjX-17" value="&lt;font style=&quot;font-size: 14px;&quot;&gt;被管理，如何告知IOC容器&lt;/font&gt;&lt;div&gt;&lt;font size=&quot;3&quot;&gt;（配置文件）&lt;/font&gt;&lt;/div&gt;" style="text;html=1;align=center;verticalAlign=middle;whiteSpace=wrap;rounded=0;" parent="1" vertex="1">
          <mxGeometry x="840" y="310" width="190" height="30" as="geometry" />
        </mxCell>
        <mxCell id="2s8KzwiCEhs0ON-nmqjX-18" value="ClassA" style="swimlane;fontStyle=1;align=center;verticalAlign=top;childLayout=stackLayout;horizontal=1;startSize=26;horizontalStack=0;resizeParent=1;resizeParentMax=0;resizeLast=0;collapsible=1;marginBottom=0;whiteSpace=wrap;html=1;" parent="1" vertex="1">
          <mxGeometry x="330" y="30" width="160" height="52" as="geometry" />
        </mxCell>
        <mxCell id="2s8KzwiCEhs0ON-nmqjX-19" value="+ classb: ClassB" style="text;strokeColor=none;fillColor=none;align=left;verticalAlign=top;spacingLeft=4;spacingRight=4;overflow=hidden;rotatable=0;points=[[0,0.5],[1,0.5]];portConstraint=eastwest;whiteSpace=wrap;html=1;" parent="2s8KzwiCEhs0ON-nmqjX-18" vertex="1">
          <mxGeometry y="26" width="160" height="26" as="geometry" />
        </mxCell>
        <mxCell id="2s8KzwiCEhs0ON-nmqjX-20" value="ClassB" style="swimlane;fontStyle=1;align=center;verticalAlign=top;childLayout=stackLayout;horizontal=1;startSize=26;horizontalStack=0;resizeParent=1;resizeParentMax=0;resizeLast=0;collapsible=1;marginBottom=0;whiteSpace=wrap;html=1;" parent="1" vertex="1">
          <mxGeometry x="600" y="30" width="160" height="52" as="geometry" />
        </mxCell>
        <mxCell id="2s8KzwiCEhs0ON-nmqjX-21" value="+ filed1: String" style="text;strokeColor=none;fillColor=none;align=left;verticalAlign=top;spacingLeft=4;spacingRight=4;overflow=hidden;rotatable=0;points=[[0,0.5],[1,0.5]];portConstraint=eastwest;whiteSpace=wrap;html=1;" parent="2s8KzwiCEhs0ON-nmqjX-20" vertex="1">
          <mxGeometry y="26" width="160" height="26" as="geometry" />
        </mxCell>
        <mxCell id="2s8KzwiCEhs0ON-nmqjX-26" value="&lt;b&gt;依赖&lt;/b&gt;" style="text;html=1;align=center;verticalAlign=middle;whiteSpace=wrap;rounded=0;" parent="1" vertex="1">
          <mxGeometry x="514.5" y="41" width="60" height="30" as="geometry" />
        </mxCell>
        <mxCell id="2s8KzwiCEhs0ON-nmqjX-27" style="edgeStyle=orthogonalEdgeStyle;rounded=0;orthogonalLoop=1;jettySize=auto;html=1;" parent="1" source="2s8KzwiCEhs0ON-nmqjX-19" target="2s8KzwiCEhs0ON-nmqjX-21" edge="1">
          <mxGeometry relative="1" as="geometry" />
        </mxCell>
        <mxCell id="2s8KzwiCEhs0ON-nmqjX-29" value="&lt;font color=&quot;#ff6666&quot; style=&quot;font-size: 18px;&quot;&gt;DI&lt;/font&gt;" style="text;html=1;align=center;verticalAlign=middle;whiteSpace=wrap;rounded=0;" parent="1" vertex="1">
          <mxGeometry x="594.5" y="390" width="60" height="30" as="geometry" />
        </mxCell>
        <mxCell id="2s8KzwiCEhs0ON-nmqjX-66" value="Bean属性" style="swimlane;fontStyle=0;childLayout=stackLayout;horizontal=1;startSize=26;fillColor=none;horizontalStack=0;resizeParent=1;resizeParentMax=0;resizeLast=0;collapsible=1;marginBottom=0;whiteSpace=wrap;html=1;" parent="1" vertex="1">
          <mxGeometry x="200" y="440" width="190" height="234" as="geometry" />
        </mxCell>
        <mxCell id="2s8KzwiCEhs0ON-nmqjX-71" value="+ id属性" style="text;strokeColor=none;fillColor=none;align=left;verticalAlign=top;spacingLeft=4;spacingRight=4;overflow=hidden;rotatable=0;points=[[0,0.5],[1,0.5]];portConstraint=eastwest;whiteSpace=wrap;html=1;" parent="2s8KzwiCEhs0ON-nmqjX-66" vertex="1">
          <mxGeometry y="26" width="190" height="26" as="geometry" />
        </mxCell>
        <mxCell id="2s8KzwiCEhs0ON-nmqjX-72" value="+class属性" style="text;strokeColor=none;fillColor=none;align=left;verticalAlign=top;spacingLeft=4;spacingRight=4;overflow=hidden;rotatable=0;points=[[0,0.5],[1,0.5]];portConstraint=eastwest;whiteSpace=wrap;html=1;" parent="2s8KzwiCEhs0ON-nmqjX-66" vertex="1">
          <mxGeometry y="52" width="190" height="26" as="geometry" />
        </mxCell>
        <mxCell id="2s8KzwiCEhs0ON-nmqjX-73" value="+property标签（DI）" style="text;strokeColor=none;fillColor=none;align=left;verticalAlign=top;spacingLeft=4;spacingRight=4;overflow=hidden;rotatable=0;points=[[0,0.5],[1,0.5]];portConstraint=eastwest;whiteSpace=wrap;html=1;" parent="2s8KzwiCEhs0ON-nmqjX-66" vertex="1">
          <mxGeometry y="78" width="190" height="26" as="geometry" />
        </mxCell>
        <mxCell id="2s8KzwiCEhs0ON-nmqjX-74" value="+scope(单例或多例)" style="text;strokeColor=none;fillColor=none;align=left;verticalAlign=top;spacingLeft=4;spacingRight=4;overflow=hidden;rotatable=0;points=[[0,0.5],[1,0.5]];portConstraint=eastwest;whiteSpace=wrap;html=1;" parent="2s8KzwiCEhs0ON-nmqjX-66" vertex="1">
          <mxGeometry y="104" width="190" height="26" as="geometry" />
        </mxCell>
        <mxCell id="2s8KzwiCEhs0ON-nmqjX-67" value="+ factory-method" style="text;strokeColor=none;fillColor=none;align=left;verticalAlign=top;spacingLeft=4;spacingRight=4;overflow=hidden;rotatable=0;points=[[0,0.5],[1,0.5]];portConstraint=eastwest;whiteSpace=wrap;html=1;" parent="2s8KzwiCEhs0ON-nmqjX-66" vertex="1">
          <mxGeometry y="130" width="190" height="26" as="geometry" />
        </mxCell>
        <mxCell id="2s8KzwiCEhs0ON-nmqjX-68" value="+ factory-bean(实例工厂)" style="text;strokeColor=none;fillColor=none;align=left;verticalAlign=top;spacingLeft=4;spacingRight=4;overflow=hidden;rotatable=0;points=[[0,0.5],[1,0.5]];portConstraint=eastwest;whiteSpace=wrap;html=1;" parent="2s8KzwiCEhs0ON-nmqjX-66" vertex="1">
          <mxGeometry y="156" width="190" height="26" as="geometry" />
        </mxCell>
        <mxCell id="2s8KzwiCEhs0ON-nmqjX-69" value="+ init-method（生命周期）" style="text;strokeColor=none;fillColor=none;align=left;verticalAlign=top;spacingLeft=4;spacingRight=4;overflow=hidden;rotatable=0;points=[[0,0.5],[1,0.5]];portConstraint=eastwest;whiteSpace=wrap;html=1;" parent="2s8KzwiCEhs0ON-nmqjX-66" vertex="1">
          <mxGeometry y="182" width="190" height="26" as="geometry" />
        </mxCell>
        <mxCell id="2s8KzwiCEhs0ON-nmqjX-90" value="+destory-method（生命周期）" style="text;strokeColor=none;fillColor=none;align=left;verticalAlign=top;spacingLeft=4;spacingRight=4;overflow=hidden;rotatable=0;points=[[0,0.5],[1,0.5]];portConstraint=eastwest;whiteSpace=wrap;html=1;" parent="2s8KzwiCEhs0ON-nmqjX-66" vertex="1">
          <mxGeometry y="208" width="190" height="26" as="geometry" />
        </mxCell>
        <mxCell id="2s8KzwiCEhs0ON-nmqjX-75" value="Bean实例化方式" style="swimlane;fontStyle=0;childLayout=stackLayout;horizontal=1;startSize=26;fillColor=none;horizontalStack=0;resizeParent=1;resizeParentMax=0;resizeLast=0;collapsible=1;marginBottom=0;whiteSpace=wrap;html=1;" parent="1" vertex="1">
          <mxGeometry x="420" y="470" width="180" height="130" as="geometry" />
        </mxCell>
        <mxCell id="2s8KzwiCEhs0ON-nmqjX-76" value="构造方法（无参构造）" style="text;strokeColor=none;fillColor=none;align=left;verticalAlign=top;spacingLeft=4;spacingRight=4;overflow=hidden;rotatable=0;points=[[0,0.5],[1,0.5]];portConstraint=eastwest;whiteSpace=wrap;html=1;" parent="2s8KzwiCEhs0ON-nmqjX-75" vertex="1">
          <mxGeometry y="26" width="180" height="26" as="geometry" />
        </mxCell>
        <mxCell id="2s8KzwiCEhs0ON-nmqjX-77" value="静态方法" style="text;strokeColor=none;fillColor=none;align=left;verticalAlign=top;spacingLeft=4;spacingRight=4;overflow=hidden;rotatable=0;points=[[0,0.5],[1,0.5]];portConstraint=eastwest;whiteSpace=wrap;html=1;" parent="2s8KzwiCEhs0ON-nmqjX-75" vertex="1">
          <mxGeometry y="52" width="180" height="26" as="geometry" />
        </mxCell>
        <mxCell id="2s8KzwiCEhs0ON-nmqjX-78" value="实例工厂" style="text;strokeColor=none;fillColor=none;align=left;verticalAlign=top;spacingLeft=4;spacingRight=4;overflow=hidden;rotatable=0;points=[[0,0.5],[1,0.5]];portConstraint=eastwest;whiteSpace=wrap;html=1;" parent="2s8KzwiCEhs0ON-nmqjX-75" vertex="1">
          <mxGeometry y="78" width="180" height="26" as="geometry" />
        </mxCell>
        <mxCell id="2s8KzwiCEhs0ON-nmqjX-84" value="FactoryBean使用【实用】" style="text;strokeColor=none;fillColor=none;align=left;verticalAlign=top;spacingLeft=4;spacingRight=4;overflow=hidden;rotatable=0;points=[[0,0.5],[1,0.5]];portConstraint=eastwest;whiteSpace=wrap;html=1;" parent="2s8KzwiCEhs0ON-nmqjX-75" vertex="1">
          <mxGeometry y="104" width="180" height="26" as="geometry" />
        </mxCell>
        <mxCell id="2s8KzwiCEhs0ON-nmqjX-85" value="Bean生命周期" style="swimlane;fontStyle=0;childLayout=stackLayout;horizontal=1;startSize=26;fillColor=none;horizontalStack=0;resizeParent=1;resizeParentMax=0;resizeLast=0;collapsible=1;marginBottom=0;whiteSpace=wrap;html=1;" parent="1" vertex="1">
          <mxGeometry x="620" y="500" width="220" height="110" as="geometry" />
        </mxCell>
        <mxCell id="2s8KzwiCEhs0ON-nmqjX-86" value="init-method" style="text;strokeColor=none;fillColor=none;align=left;verticalAlign=top;spacingLeft=4;spacingRight=4;overflow=hidden;rotatable=0;points=[[0,0.5],[1,0.5]];portConstraint=eastwest;whiteSpace=wrap;html=1;" parent="2s8KzwiCEhs0ON-nmqjX-85" vertex="1">
          <mxGeometry y="26" width="220" height="26" as="geometry" />
        </mxCell>
        <mxCell id="2s8KzwiCEhs0ON-nmqjX-87" value="destory-method(涉及容器关闭)" style="text;strokeColor=none;fillColor=none;align=left;verticalAlign=top;spacingLeft=4;spacingRight=4;overflow=hidden;rotatable=0;points=[[0,0.5],[1,0.5]];portConstraint=eastwest;whiteSpace=wrap;html=1;" parent="2s8KzwiCEhs0ON-nmqjX-85" vertex="1">
          <mxGeometry y="52" width="220" height="26" as="geometry" />
        </mxCell>
        <mxCell id="2s8KzwiCEhs0ON-nmqjX-96" value="`InitializingBean``DisposableBean`接口" style="text;strokeColor=none;fillColor=none;align=left;verticalAlign=top;spacingLeft=4;spacingRight=4;overflow=hidden;rotatable=0;points=[[0,0.5],[1,0.5]];portConstraint=eastwest;whiteSpace=wrap;html=1;" parent="2s8KzwiCEhs0ON-nmqjX-85" vertex="1">
          <mxGeometry y="78" width="220" height="32" as="geometry" />
        </mxCell>
        <mxCell id="2s8KzwiCEhs0ON-nmqjX-91" value="IOC容器关闭" style="swimlane;fontStyle=0;childLayout=stackLayout;horizontal=1;startSize=26;fillColor=none;horizontalStack=0;resizeParent=1;resizeParentMax=0;resizeLast=0;collapsible=1;marginBottom=0;whiteSpace=wrap;html=1;" parent="1" vertex="1">
          <mxGeometry x="880" y="500" width="180" height="78" as="geometry" />
        </mxCell>
        <mxCell id="2s8KzwiCEhs0ON-nmqjX-92" value="ctx.close()" style="text;strokeColor=none;fillColor=none;align=left;verticalAlign=top;spacingLeft=4;spacingRight=4;overflow=hidden;rotatable=0;points=[[0,0.5],[1,0.5]];portConstraint=eastwest;whiteSpace=wrap;html=1;" parent="2s8KzwiCEhs0ON-nmqjX-91" vertex="1">
          <mxGeometry y="26" width="180" height="26" as="geometry" />
        </mxCell>
        <mxCell id="2s8KzwiCEhs0ON-nmqjX-93" value="ctx.registerShutdownHook();" style="text;strokeColor=none;fillColor=none;align=left;verticalAlign=top;spacingLeft=4;spacingRight=4;overflow=hidden;rotatable=0;points=[[0,0.5],[1,0.5]];portConstraint=eastwest;whiteSpace=wrap;html=1;" parent="2s8KzwiCEhs0ON-nmqjX-91" vertex="1">
          <mxGeometry y="52" width="180" height="26" as="geometry" />
        </mxCell>
        <mxCell id="2s8KzwiCEhs0ON-nmqjX-95" style="edgeStyle=orthogonalEdgeStyle;rounded=0;orthogonalLoop=1;jettySize=auto;html=1;entryX=0;entryY=0.5;entryDx=0;entryDy=0;" parent="1" source="2s8KzwiCEhs0ON-nmqjX-87" target="2s8KzwiCEhs0ON-nmqjX-93" edge="1">
          <mxGeometry relative="1" as="geometry" />
        </mxCell>
        <mxCell id="2s8KzwiCEhs0ON-nmqjX-97" value="" style="shape=image;verticalLabelPosition=bottom;labelBackgroundColor=default;verticalAlign=top;aspect=fixed;imageAspect=0;image=data:image/png,iVBORw0KGgoAAAANSUhEUgAAAnYAAABbCAYAAAD++cg4AAAgAElEQVR4Ae1dvW4kR5LuV6Cr1+CLNEB3IONw3o6/HkFLGGNO5mLNpiEJJ0jGWAtBzjWB4R2E2TXWH+i4MzfPUF6eMiMjMyIysqqa/cNm8TOI6qrKyvj7KuOryCzWahiGgD/4ABgABoABYAAYAAaAgeePgRWC+PyDiBgihsAAMAAMAAPAADAQMbAMYnd3E1arlfi7CdtuJXIbbmLbq0146LY5DTgebtdJ55u708jDTQ8/AwPAADAADAADy8bAMoidIGhElkDscOMu+8ZFfBFfYAAYAAaAAQ8DpyF2HzdhvVqF9e3D0dfzTRO74wNhe70Kq+vt0W31AmqPJV1mVzMf6xuqgh6/8rg0OY/1N66zOMc+MAEMAAPAAGHgJMQukq31VZx2HKukHQaUIHbsx86U88eHI0xBL41wncoejhW2GJCBAWAAGAAGDoOBExC7mCTXYfPRS5Z87CFsruoaOVX5SdW+ej2tpYv7vgN6xI6OVxm9ilrTLunOsrSeSRexVq+9luVJQks21zWBHVvsukEhJ4K/VAVVuyqHKnV1v3vDqOvbtYfjchx/cHWwqViatsoePif1zcdSP3ye/Sm2jRyO1djWxoArrDPlZJ+pCnQ61omlWCrQjcMj23y6/Uv489XfwqePfwtvV2/Cn9PfX8Iv9v64+y6foza3ZV3n38Ptymmf9Innvgv/eKRuh7YV/Y1hGueAD2AAGCAMHJ/YxYSXk3ghCSVRcIIVCdEmyDyNK6t9PfIWgzp2joIuCYO+EYgMCV2KntzuIWzvxHRy1k0RUUm6muu5n7y1tnL7dHwVar9ZZ0GGSFdJxKRd9FsRD+5bbveWw/YwQed9u5W6xXN2XxzLNqY4CnspdlNyrFxnn/E0SghnyFG+m9Fe+j3+/p//CH/96iv/79//M/yfbd/ZT8QukblKwP5x/YbIHl+TSJ0gb2r/X+GXqzeBiZ66NpLFSBq5H2zPYnkFkpdzXwObwCYwUDBwdGIXCUghKA2R8RIiHSukpFTsxM3cIVT7ETsjdxZI/GtaAit0l/02/qB26XpLakxbr02V6+tlE4LXx7CTHLaL5JU4Sxvj79SnrMb1CDj1s7pah7WqlM6UY+U6+9PEP8qasCf3S33FZQZc8WM9T7clYldJXYxxqeIlPYm4vb39V7nphyFW4t4EPhbJHP3+e7i9+i7cXmUSGAng9d/Fdaezy2IV+/A9MAAMAAPzMHBcYpcImEzotpLkJVA6dnJiN0IWFZgSSRFTgc5LIZVgTQTBkCiS41WzhjAY/TwZ9ZjxoUNw/KrZrnLYPi+OfI5JnPYZTUVLbOT22b8l/kr3cTkqTuq6qotLZpu2c+XkWJ1g7WjPNk3iyE59jEgcTdHyVC1tmdil9pHAZSIX92MFj7c92ThecQVfwBfAADBwLhg4KrGjioaT0Es1ykug5lgiNGZ61DuWk/N0RaZDnHKVxicUGbANESNd7TWVYE0AvemP2rvkw7T1ZMhj6fcE4TiEHAKyiZklSkl3h8TZdpm80os2Juap7YQc25+zP42PGIN5csh/sbr4iIrdIadizXSpJnZexc7gMq3P+y78kgkdE7x/XIvpW8eX5zKIQQ8TT8QKVWZg4EVj4IjELhIoJzkrUkYJlNfgxQG6ISQ52deXHTIxK+RQD2rTibtH7Fi2o3O+SZq+mYiYf+OS2nX0U0nIkLVyLh0XU9i8Jk30mfxk1onpY9m3Y+TuIHKi/8mnluAWezJRqjHUMaN2uo8GBykGuk3t3+uvc6zBk9duhhxJVjs4eJR+Ow7ImsSRLfZY2u++IBGv4aoeT+nafc9HOHaK+EIGcAYMAAO7YuB4xC4mPkFEqmKUNCnJ58rILf2fO3d6LiXNddjciq9LuP1S8Bvy1SRKKb8FDF2vq4x17Vi+lt/8vNqEbf56hCYtTKq4nw5ZTORg7BxfL1+SIJ01iZs4xvqmrZGXyV15S9f4dq4cWkfX15fJX5GTdOEqnhcT9jW3ybGa0LfirI1tPWfj0/p31B4vblmvPrkd0+fx5yyJizZ6x1IVrrw1q6dih4GqenU9Xd43lcDqv8friz7gO2AAGAAGjouB4xG7hlB5hmRiV/71gtOGiZ399w2z+nf6w3UvukSNAQX3BDAADAADwMCSMQBiB6IHogcMAAPAADAADAADC8EAiN1CArnkpw/YhqdrYAAYAAaAAWBgHgaemNjNUxLBhJ+AAWAAGAAGgAFgABiYxgCIHSp2KL8DA8AAMAAMAAPAwEIwAGK3kEDiKWb6KQY+go+AAWAAGAAGlo4BEDsQOzylAQPAADAADAADwMBCMABit5BALv0JBPbhKRsYAAaAAWAAGJjGAIgdiB2e0oABYAAYAAaAAWBgIRgAsVtIIPEUM/0UAx/BR8AAMAAMAANLxwCIHYgdntKAAWAAGAAGgAFgYCEYALFbSCCX/gQC+/CUDQwAA8AAMAAMTGMAxK4Qu/bD8Ddj37At1007+VyB+HC7DqurTXg4ti13N2G1Wom/m7A9tsxO/8lmqcuY/Vnv9e3Dkz/Jst5Lx+TT3Stfwk9/ugyXl2/Dh4Kd9+HXi4vw4zfvU/w///Aq/HjxJvyznD/VvZ/1iLrkv1/ve7I/hfuvY7un0NPqlPX++vvw+eQ+s7pgf/69xRiqeHv3w6dmDKT74VW4/z36lmIt2335+XW4vLwMb3+D7+f7/jC+ArHzBpyPm7D+I/kvPYmejNgJHxNBeTpiJ2+w7fVqnNiC2DWDufTfYn5/+im8vrwMr3/+YuylBMfJ6umInRjsf/8+vLu4CCB2widifFkMJs/GppawFR/fvxEPEJ12+d66/PaDubcQv+LHI8T6ZRG7pnLUIW9PTOy4OqOqXGOVpS4wqArZI6iTxC77YXW91TflHv6ZJHY5Rj2dD3kzTBK7rl8PNSiNx+eQtk739RA2V7KqOkF6H+ubhJ112Hw8lA87/cyW8yG8dUld7FcTuyEmsqeuPk0Su44/Hhsv57pEcJ/aD6xXIhe1shQrmn3S+3jf/PObWrmdvpfOX858GzqELfpfETu6V3zfj91jj/fVfBtenowXQ+xSEl/ZhPIQHrwEswdxOQTYWsKVp4ktweLBrbsdJw6tHOcGaHwx3ueU/VPELsZpfXWaKWIQuxzvHOOWwD8cfpp+NuFysNjFudN2ppw0XfSnn8KXTt8xoZdkBWKXHvDOhdglsnXBU4GMgU/hc5oa5P3DbEHs2qnYIT5kFII/RuyGMPz21ixzOExcpvLNSz3/MojdrlWghswwCOdUNWa0magceoSrPZbJnlwvVoifowO3K22GUPrkxJ7aWPKb261o+jQRL7nmLNpytQnbuF4vT18TeVsFb20anetMxSY9bsLWTcpMKLVtqrJXrpO+ae3hm90ndrp/tomvkVu2s1ZWpSypQ66EFd+3MkofpU3EnO1D9s+Y5PiIapvTR/RTsrfBQdZlTkXY4lZdw/HpybG2VH1bnBj/SDmMVWljPkZY2EUOratrp2Crb2W8vd80PSsrRppoFBIkK0slGZIcJg2qr7yur5HZq9jJ/uM6PCOj9kMVGF6rl7ZSlu1HVsCcc9SPY7NYD8hrFKsO0W4iAlKPQqCHIRS/ZXsbOVkXeY3un2O4nxwVE2mTt4bR+Efpls/xtH7SNR0j3+0kp/MQUvu8CD05tBbuVbi/pyn9FBv2sYuZkYrdmB7NOara+evt6Jxe38rxw9bH9bhfXgSxKwSmAVvHOSpRyDYPYXsnFtI77VLylEnHykzX+AmaA+jp25KQbdjKlztS0rX91mTLfcttJSaVaLVyov0i0cokG23LyT4lZ/vbth2YhFR5jT7JdyRPJ3xO2MJGa3OOxyqT0Ng32ejL820V8Xbiy/qma5sKsLh22D8+LCttra0ZV2Sf8AmTwYJB9psg2squcYwUHXJsK5G2hHBKTvbNJP5zv0V/uz+EIetP+PCwwm2kX2Rs+PdYsuE249vP9+/FiwGZRAiiVBJ2Oda2ocqTTMYjybRH7MQ4k/rzkjQn8KKLY9v9e/VyiNdXIV1CZsGJOtbaSu3ycamjIWrFb4JASV3m6bC/HLYryR71W1xvJgiuIG3cB01dcgWYYqzI3zCESTnKv0784nnlSyuH9on4299C/yKH2iiiWM515Lvnxx6iQOwKRlzf7eJnavsiiN1kArfOVIlvzKmUzCQBYbJUE6C9PidAh/RwcFMf8nyTVG2fnMjsmsHxpO2RnkY2+0YlUyE/6sa69n5zH6NEKybomohb3TxbjP890jASy0lcdK81coV9HMNm6/bl2SR8K/tNGKj+of4d0tP42NNVyHX1anVwfaV0mpDDtiR51g4hL/WpiXiLBfFA0Zu2n5IT9ckLu/0qgtCJdZ+xleQjxsgjIERa6lurXjK3/RQ87UHsrNzS54hd3jWeTX5fHWLn2qDbTsnt+kfacgA5bJcXIz7H1UdNfnxCRHa9Cu/im8sOURyXMx+TfTlRLyZwvd9Sjm9HtV22Hfs9RuzGrsO53X09BBA7ORDw77FklxJPnUaKU2iS2HEQqKIT23WSWJaRpuBKdYJATIlMyvD7aNs9gtgxKcu2pz7NMZ4STGvfrD3RH9y+95v92pAOcdPKa1N7QT7c/XitIRNeMh+JpUtWhK5cGWpI+kifHP+43Tc+si+qjFocGPtZ94RRbmv9WP2W7Jpli08gtX8m5LBuXoz4XMdnNE2tyV70Dd1jbKfAUuxvQg75dv+KHf+bBzmlKKdBPRJkSYuXzLvExSUr2vbetb3jCmfOFKn91ymeTboP1keTtdLGq2ZxtSpX8TwZ8tgsWw4gh3VO8hwiRueJ/CgM5GlbTfaiX7JPRCWSZcTtuBz265xtT06PzMnjsn8QOxmf5/L7RRA7ni5sErRIKCpgvWSnEmYEfyexin4puXeST2pHfciF6z65kjcbkwaR7FydvWRb+/HkeMdSAs3ksyFDkpD1fjf+EHrnc5SkJZnNvwvp9Wwxx7xk7h2TMpmUCh0LFlyf7hJ3Yafbl9Hf04GPNdiLeviEizDHsj0Z8ljuY8wPTKJsG6WT7JMx5hwbiUfye+qTded+2i3ZuA7r+Cav1Sv6bEpO8uu+VYQ26VnCIckI48oe85K5dyxdvwexS3I7hIJ0a4mYd43Vn+1qt21/fRt0W0+GOqamG1t8HExOvv+68UjnSfeWxLV6ET5epX9Zc8yKXV+OJHC931LvFuNtnGX73u9DPET1+sZxG5OXQew4MeXF/dYJzb6bhPtkqlbszBq8UoEQiepua/45LyW/2keW4yWrPMhEfV2C1dhHSVv2LW31SJw9ZveZzBYi2iNz8rjQmxKy8Ec6F31gj/F0Gx8nP8kkTmSQz3MyX4WiGxOfji8bHwo9k586OCj+t9VLcX3TdyIstqI6Hh8ZK79ix5iUDw7ZTzsT4g5BYpsa/S0hJLn64WnuMTkwW/3lufxbkbZee09229fUW7EqBuwL3jYkK5MTsXaMiBGvqxpCepPwQq6ny1WaMj1m10gZnRuZ5jxXfYQOxYZ8rUcoqE2bxBNBsGQwkao6lVz6Z7+UrSZrtV3rJ70ubGQKW9hFugnfFrnsk8PIiXorUtnIyedlDJ026t+D5FhYMjglR8bJVlKLf2V8Gjk9MiePs//itsVEkePZ2Ds2+lYs1tg9yqc9Xw8vZCq2OC0nJ5raoYqQS3q6CT0nM36zULwNSmTCnE/tZNJlsmIqUyUJ0w3Vkil5o/HvnNBYl+tteetR2WRtFiTHkyOPEQkz+kcw5T6TnPib++z9FgCkPgUZY/JrfEAxIxvJnpyob+mfR7vTc5zwb8WXLlg3oQPjoSFftk0XByJO7P+8rcRm//iwnmmbfO7Egv0n9VC+zH6TL9rkSnPVNdrjYVfHieNe7h/l27lymIyKe0DpO6GLF5N8rBL6TnwaObEdJZXHvhnLxK28tclvG2YyxIn6Pv4ftM70XCIo33yfvxhB7eyi+oKFfYhdwjclatYlbQVZYoLF53+95/a8Liv6LBMm8Zaor2+P2E33wX6TX6zwjll9o96aLI3r6vXpHWOCw35RL0rwuJGriLWN0CWdkz6sBF7ry/5mvJhrVAwdcj0pJ/bPffZ+0/1DmCN9tI7y/JzfU/cYiF25vxlLe25fTMXu0I5Df3Nu6EO28YiD6Z+Jnfe/Cfe8URBv4+sl+bP75Yn9bfZJgu6XiB19tgw4076BP565P+Z+eSK2G/l/ksDBbjgAsVtSglq0LSB2GNx2G9x28xettzv0/9ICsTtmzND3bhg/rb/oW7Gvw0+fpuRSxe6Qb6efs19OoRuI3aLJ0NQN9ZzOg9idYkCAjMPeEyB2h/Un8Al/AgPTGACxA7HT34GFP+APYAAYAAaAAWDg2WIAxA7gfbbgxZPb9JMbfAQfAQPAADDwsjAAYgdiB2IHDAADwAAwAAwAAwvBAIjdQgKJJ7KX9USGeCPewAAwAAwAAx4GQOxA7PCUBgwAA8AAMAAMAAMLwQCI3UIC6bF2HMPTHDAADAADwAAw8LIwAGIHYoenNGAAGAAGgAFgABhYCAZA7BYSSDyRvawnMsQb8QYGgAFgABjwMABiB2KHpzRgABgABoABYAAYWAgGFkHs5IfrPfZ6XsdmfEHhIOA6lZzzfmKiz9pchlN/ruZ8MJk/sI3vMC4raf32NlxeXobXP38pdqWvXKgPvIuP0A9DONU3aU8lZ9a4fv8m/HhxEX69j+PUp3D/9UX48RvxXd653zI9yJh83mPlLH/CD+V+O2d/gdidHKinIlynknOug1X+9ucTEZrzIXYUnw/fXobLyznfbTzXeEIvTiQUy7fhgx27Eol5E/6Zjr8Pv16A2A2/fx/eFbLrELvkq+N8J5jjhS3u3VNj4KjELiW31Sqs5N/19uCMd04S3V4bPVarsL59OLgu0wE8FeGalnOq+Ez75PA3fkp+Dqk7FQ6mMUnxUffGah02Hw/vC/Y/VS8dQmAJwh77yb9HuMfZhkNup2J0KqzsYtNoDBWxIxJDlSrC1KkqadNyiHTGSlr9exXufz8C9hWxo6rlux8+ueN+b8zYJT5oe4QY7jEevdR4HJ/YXW3CAwfm4yas/yB5N3eHDf7UAB2D2yScrMvq5ElomnAdBozTclq/ZbIhY8axe07bNL3iV6caHNzdhNURCFXrW4v5Nj7pmiPcHxVPVJmQ03f1nNXvcfuNf88YN1Mxamw5Elbmx4Cm1bvLCiKJ+fr78Dn5/PyJnSSdNI3MU6aPw57vx0giuYo5TuyGYcK/Z4xl3/ZD+hF9PScfn5bYDW0yG4aHsLnS1bSW+GXCUSp/urLRDtDc503Y5puxGaSHIVAirW04sdYqipaTApsGd6HvziSo+iDplG1qbJ4hp9FXkdQqpwAy98mVytZvQxia5GV9vwotGWZ/V7809pxwUExVDadaF/3Q4CARfBvnOfZYv+g+Wt9yn4w3Jz58L4g4NjH2SOgMrDAGxnzDbfpbtqHGeZXx3+rJbdhexpaplDd4m5lAlM03YXO7DqwL6691EvFR17KecSvazMZKtYvHDY39vs9Yz4JJpZfwG987aV3d4yuupZKW152laplcb5bk5OlKUU2TBIx0thU3XW0rcljvIbcvpJP2db/tNCmTvbGqXtOmsWcmnrKuqWr37Qe3okfVUr2ukWOI7W5+hr+O66+TEjsaaOWAlQc9SY7y4FYHx5xAm2RXB+HUb+nDS5hOQo83sqkgPtxta3XRSbJEemTF0dG/DGa9wFVCUGxMNld75sghX4prMmmupEv7QfuIdPOODbkfJn9xfysrrFZX9lPxf010xb5Jn/x3ePfVV+Gv7t+/hf/6354v/eNjg3NJolmntC91n2XPITCp48MDHcW13iMHx+SjyUG2Wfmq9b/1L9tVtur+9n1Q2vZwo/qo97Ekdo0fI/FbVb9GGT7+q03WlhYrjHVxHzr3x/ZOLPkwY07UI/UbH/CKb/O4Isa82G4/Up5fnoiErZAfIlh1ajKTq0LAhjColw+ibzJJK30MQb+0YV7SMFOhFFuP2HE/tbr2+f59rj5GuT3iJ0llqxvJqzGd2h/zMYjdfD9O+Rnnj+vL4xO7UmUzT+px0HYGuVLB40GtGSijQyghMPkoA7RbfSEH2kE6AcuVXx1uB3K7n/pw9at9tAD2kpm2Z1qOP/DrZFbluLZ3E5vWpdHf+szup2Ts69f01Uvcex3PC6E7T93JFwKTDfmcY48bc+23aUzW+Ei/6Bi2OLLYsPupL1e/3Ndjid1YnyJePay1Nq7DOlbq+T4Xfci23m/PZn3M8a0T1xKjjuzU5xhW8kMAj0Okq8ZBq397XutOcUrHjG/2XQPWVtIyCWMil0iYnQ41hCoRPUmmor6aIBY5as2fxPI8Ymd9l/plXR2iF9sTyazk0PYxtT9G7KauxXkZY/x+Sjwcn9iVp1Ce+hQEr5Ms5EDnJzpNHKgNTanoQbaCyxsoiViKp22ueonBfOop2ienVW4bXCfpKKKqbSvXq8TUJofUTvmT2tD0kK5UcJ9+Ymv1k/5tppuUzGq3jCHLO9V254rdH/EuBG+GPYfBZOvn6J82JjKOedqw3FNzsFJjkvz/SGLn22z65uqTISRt3LPepoLWtmv7bx78MilTeMv3CmNVbkucXV9reXbMSPsSK954kccONQ4lTMkpXzEGdnxmZUff7Es6CuESRFaRJZe0afLnEydN/lKfeSpXT7eyf0eIXSFusW2uwIlp4R/LeU0mC3Y6NpTzwnbv2L4+9vrEMY47tqfCwkmJXTTKG4DlYNsM3G6ipWTHg2dNhjkJOonFGyh1stJ9Nrpa3XmAcPUbAzDJ0TbrY8pHrhw/oXv2RDl0XBJY0q/6Tehr7NF9OlVWRTi5H1+/PqgPOxU7Nji3ODC6zrHH+Ijs0vipvqXjbWVKx5z6MLoowk++tdiw+6kfVz+6fsw3/fg4U46MS7Nt/cuYqFvSeZ1epGr9Utv19PFkaD94vm37rTFqz0XZrRwbH9rnccjVt4mFxokvx5M9hOGRpJz16hI7nlY9dMUu91enetnPHrHT5JBJnbxWkdAjVezGHgrZj9hyHLE9VyycmNjlgdFWHMo+JxBRQeGnYkHWiGxUoqIHaD+RNoN0GnDFk3OT0K2unm5OG5Po2sBn/YTNSTdZvci6VfLXyrE+4Onpmih1cmvbO9UhrnQIX+uEOdMHjf4nHgB2eSu2wVfr63bNY4sx699pTOr4RJwQDiqu22rwHN2cNgWT+7wV2+K2xbaDqSI7YyBhI1eQM948YpQIqPkHvCzP+prjU6vr7Eu/Us390HX9Ns2Y0WCl/9DEMkhXIcOxuZXTIXZ7vrVJlTQxjZqqW3LqNZOrUhU71Bo7/f/0mLTJal6jW0MyW93s2j7ut64h3HXcGX8rdgyTHG9sd/U52h8DM8cndnJaM/0Wg1wa9HMiEu0qoeGg56RS2ojk502pMEERZImSpp4OsXJoEOY267C5o3/PohZdZ9JSpncEQZsXoGiL7DvKsz6pBGpMjtbXrlfqEYdKZpvr3f/tZ3x/vS2LvWtCnhNDjuVptr31SB4OJCGgGM6xx/jFvFGZfCux0WDSXu/jQMdI4kZgZiYmKTE9/q3KUk0v96Gns7VL3KtJT7Ef7/+se8US4WMqiao4Mialv3lcULrKB8YoZzzOSgb3Y2QkvFj/q/vIyLjahG16kaPer0mOeJiKfXrH4vF9YhjJ07sf3tPXF7pTpZlAielPScDo/rBTpIIsel+4yATSTqPWt13j/7Nr18URceP/dfcq3N/Hfzas2+o2F+LFkN3Hmd6YQTaz7/FWLPsD290xdiqfHZXYncoIyDlfgD1dbPJLFJ1/e/J0ej1NrFLSWvCXJ3pEaIlxpljuQ9CfBoPnG4s8VlxO+zT6vvt/BG11Gvvuv405Xxws574AscPNt+ibjys/L3cwzt+K7bwlvIhBNldDbQV+Ebb1xqe03g7Vo71jnL8VO+efdqexBA+Ki84Xe+Opd7+e+DiI3YkdvhTgwI7lPN09u1iWaW1eNmGnWBGbZxdTjMMgTMDAwTAAYgcwHQxMSCYgFMAAMAAMAAPAwNNiAMQOxA7EDhgABoABYAAYAAYWggEQu4UEEk9IT/uEBP/D/8AAMAAMAAPngAEQOxA7PKUBA8AAMAAMAAPAwEIwAGK3kECew1MCdMDTKjAADAADwAAw8LQYALEDscNTGjAADAADwAAwAAwsBAMgdgsJJJ6QnvYJCf6H/4EBYAAYAAbOAQMgdiB2eEoDBoABYAAYAAaAgYVgAMRuIYE8h6cE6ICnVWAAGAAGgAFg4GkxcFRi13wI/Ugk6lRylg/W9puJS//G6PJj+rQDDPwL/wMDwAAwcFoMgNgdiWw+OyCPfTMR36XEFAXuE2AAGAAGgIFngYEXQ+y21/W7kqsV/V7fPjyLIB2fJNKH4kc/hJ2J39vfTvvkcXzbYQ98DAwAA8AAMLAcDLwsYne9rUSOPyQuj73Qp5EvP78Ol3/6KXyZsH9uOwwQyxkgEEvEEhgABoCB54WB0xA7JlGxUna1CQ+KQDyEzZWupt3cWSduw02uslG1bR02H2ubdo0d93kTtllWqtgZEpeuW9U2tC910XISuO9uAlf80raxp+rVvRmkP9zqIesvdFFyoj8c3VK/5rjRt/UtrasbrdZxvFLV7nX46ZNnI1X9Li/fhg/cHtv6IAFfwBfAADAADAADJ8DA8YmdInOZsBSClfclaclEpBKQTOrKNUMgAlYJjCZ21L5eTyTEI3ZDJljc9uFuK0in1XUIQ6Obo/9k0Hz9NAl8CNs7MU1s9Ixtk83CJ+6xpG/1E+kv9pOuRMjmTbGOtQWx0zH0yC+OwUfAADAADAADx8XA8YmdJG1MSLhK5hCWYTCEypKTREaIHPEauULsvIpVJlpziJ0FW7pG6G/3U3tXv7GgZfvYB5NEMPal7U1yk6212lcml9oAAAK3SURBVEhtJGkjOewjss3pZ6e1c2PEbsxmnLPYwj4wAQwAA8AAMHAMDDwtseuQIkmgqDonCUwEgiZ/1Gb8hYg+sZNkiIiPP9WqZZZguOR0DliFLEEeS7/JN2IqdrUKmqQNIdpUjsX2qh/Rv5rGFtcctGI3x2a0KfGdRejhL/gLGAAGgAFgYDcMPA2xYwLikiJDoFzypytPpWKXK1srM0UZQeERO00adZ/lGtaV+xD7CWyufrsEIdsr+236bHWrson0Rvt4Sjmdy+S3EL8ukTjUGrtdbEZbihH8AD8AA8AAMAAMHBYDxyd2f1SLCuHIRK6SjR6pEdc4ZI0IWa20VWIXnZMrVYbcNcQukSdRvWpI5hzdnDaZQNE/9r0Mzdq1j9uwFS9+2OpjBLgmnEPgtYDVbwwCkn9zuwlrSQyzDtZPvZtn7tuu4+2wxq7nXxxnvGILLAADwAAwcGwMHJ/YXW+pWua+/RkDnMmRmC4sRLBUmTJZK20qqYsO0sSuEqGVWMeWiF25nqY4rRwiQjz9uQ6bu01Yp2vEVHAmhGW61iFUUac+seM+Wc6MN4WvNmF7u6a3cQ1h5Rc6WtKXbx6rrzOlOwxEykbfjJ1ciwdid+ybFf0jIQADwAAwAAxMYeCoxG5KOM6fEUAzcXPJ3dwvT8Q+Zvw/PMT9jOJeHp6gE3AJDAADwMASMABih8Qm/q9Q71uxc/43Hd6YXcKAABuQ2IABYAAYeN4YALEDsRPE7nmDGYMR4gcMAAPAADDw0jEAYgdiB2IHDAADwAAwAAwAAwvBAIjdQgL50p9QYD+e0oEBYAAYAAaAgSGA2IHY4SkNGAAGgAFgABgABhaCARC7hQQSTyl4UgUGgAFgABgABoABEDsQOzylAQPAADAADAADwMBCMABit5BA4ikNT2nAADAADAADwAAw8P+0wqnwKB1l1QAAAABJRU5ErkJggg==;" parent="1" vertex="1">
          <mxGeometry x="382.2" y="730" width="484.61" height="70" as="geometry" />
        </mxCell>
        <mxCell id="2s8KzwiCEhs0ON-nmqjX-98" value="&lt;font style=&quot;font-size: 18px;&quot;&gt;&lt;b&gt;IOC容器和Bean的获取：Spring相应接口&lt;/b&gt;&lt;/font&gt;" style="text;html=1;align=center;verticalAlign=middle;whiteSpace=wrap;rounded=0;" parent="1" vertex="1">
          <mxGeometry x="425" y="690" width="410" height="30" as="geometry" />
        </mxCell>
        <mxCell id="2s8KzwiCEhs0ON-nmqjX-99" value="Property标签" style="swimlane;fontStyle=0;childLayout=stackLayout;horizontal=1;startSize=26;fillColor=none;horizontalStack=0;resizeParent=1;resizeParentMax=0;resizeLast=0;collapsible=1;marginBottom=0;whiteSpace=wrap;html=1;" parent="1" vertex="1">
          <mxGeometry x="10" y="480" width="170" height="104" as="geometry" />
        </mxCell>
        <mxCell id="2s8KzwiCEhs0ON-nmqjX-100" value="+ name" style="text;strokeColor=none;fillColor=none;align=left;verticalAlign=top;spacingLeft=4;spacingRight=4;overflow=hidden;rotatable=0;points=[[0,0.5],[1,0.5]];portConstraint=eastwest;whiteSpace=wrap;html=1;" parent="2s8KzwiCEhs0ON-nmqjX-99" vertex="1">
          <mxGeometry y="26" width="170" height="26" as="geometry" />
        </mxCell>
        <mxCell id="2s8KzwiCEhs0ON-nmqjX-101" value="+ ref:注入为引用类型数据" style="text;strokeColor=none;fillColor=none;align=left;verticalAlign=top;spacingLeft=4;spacingRight=4;overflow=hidden;rotatable=0;points=[[0,0.5],[1,0.5]];portConstraint=eastwest;whiteSpace=wrap;html=1;" parent="2s8KzwiCEhs0ON-nmqjX-99" vertex="1">
          <mxGeometry y="52" width="170" height="26" as="geometry" />
        </mxCell>
        <mxCell id="2s8KzwiCEhs0ON-nmqjX-102" value="+ value:注入基本类型+String" style="text;strokeColor=none;fillColor=none;align=left;verticalAlign=top;spacingLeft=4;spacingRight=4;overflow=hidden;rotatable=0;points=[[0,0.5],[1,0.5]];portConstraint=eastwest;whiteSpace=wrap;html=1;" parent="2s8KzwiCEhs0ON-nmqjX-99" vertex="1">
          <mxGeometry y="78" width="170" height="26" as="geometry" />
        </mxCell>
        <mxCell id="2s8KzwiCEhs0ON-nmqjX-103" value="DI注入方式" style="swimlane;fontStyle=0;childLayout=stackLayout;horizontal=1;startSize=26;fillColor=none;horizontalStack=0;resizeParent=1;resizeParentMax=0;resizeLast=0;collapsible=1;marginBottom=0;whiteSpace=wrap;html=1;" parent="1" vertex="1">
          <mxGeometry x="10" y="600" width="170" height="104" as="geometry" />
        </mxCell>
        <mxCell id="2s8KzwiCEhs0ON-nmqjX-104" value="setter" style="text;strokeColor=none;fillColor=none;align=left;verticalAlign=top;spacingLeft=4;spacingRight=4;overflow=hidden;rotatable=0;points=[[0,0.5],[1,0.5]];portConstraint=eastwest;whiteSpace=wrap;html=1;" parent="2s8KzwiCEhs0ON-nmqjX-103" vertex="1">
          <mxGeometry y="26" width="170" height="26" as="geometry" />
        </mxCell>
        <mxCell id="2s8KzwiCEhs0ON-nmqjX-105" value="构造函数" style="text;strokeColor=none;fillColor=none;align=left;verticalAlign=top;spacingLeft=4;spacingRight=4;overflow=hidden;rotatable=0;points=[[0,0.5],[1,0.5]];portConstraint=eastwest;whiteSpace=wrap;html=1;" parent="2s8KzwiCEhs0ON-nmqjX-103" vertex="1">
          <mxGeometry y="52" width="170" height="26" as="geometry" />
        </mxCell>
        <mxCell id="2s8KzwiCEhs0ON-nmqjX-106" value="autowire自动装配" style="text;strokeColor=none;fillColor=none;align=left;verticalAlign=top;spacingLeft=4;spacingRight=4;overflow=hidden;rotatable=0;points=[[0,0.5],[1,0.5]];portConstraint=eastwest;whiteSpace=wrap;html=1;" parent="2s8KzwiCEhs0ON-nmqjX-103" vertex="1">
          <mxGeometry y="78" width="170" height="26" as="geometry" />
        </mxCell>
        <mxCell id="l0sPDSlst7Odc_R3dFh9-2" value="" style="shape=singleArrow;whiteSpace=wrap;html=1;arrowWidth=0.4999994550432478;arrowSize=0.10013348588319583;" vertex="1" parent="1">
          <mxGeometry x="20" y="90" width="1100" height="70" as="geometry" />
        </mxCell>
        <mxCell id="l0sPDSlst7Odc_R3dFh9-5" value="&lt;font style=&quot;font-size: 36px;&quot;&gt;配置&lt;/font&gt;" style="text;html=1;align=center;verticalAlign=middle;whiteSpace=wrap;rounded=0;" vertex="1" parent="1">
          <mxGeometry x="470" y="110" width="175.5" height="30" as="geometry" />
        </mxCell>
      </root>
    </mxGraphModel>
  </diagram>
</mxfile>
